<svg xmlns="http://www.w3.org/2000/svg" fill="none" viewBox="0 0 24 24" stroke-width="1.5" stroke="currentColor" className="size-2 text-blue-500">
             <path d="M13.5001 21V13.5C13.5001 13.3011 13.5791 13.1103 13.7198 12.9697C13.8604 12.829 14.0512 12.75 14.2501 12.75H17.2501C17.449 12.75 17.6398 12.829 17.7804 12.9697C17.9211 13.1103 18.0001 13.3011 18.0001 13.5V21M13.5001 21H2.36011M13.5001 21H18.0001M18.0001 21H21.6401M20.2501 21V9.349M20.2501 9.349C19.6502 9.6951 18.949 9.82304 18.2656 9.71113C17.5821 9.59922 16.9583 9.25435 16.5001 8.735C15.9501 9.357 15.1461 9.75 14.2501 9.75C13.8244 9.75041 13.4035 9.66 13.0155 9.48479C12.6275 9.30959 12.2813 9.05363 12.0001 8.734C11.4501 9.357 10.6461 9.75 9.75011 9.75C9.32439 9.75041 8.90348 9.66 8.51548 9.48479C8.12748 9.30959 7.78132 9.05363 7.50011 8.734C7.04203 9.25351 6.41835 9.59858 5.73486 9.71067C5.05136 9.82276 4.35013 9.69498 3.75011 9.349M20.2501 9.349C20.6487 9.11891 20.989 8.80019 21.2447 8.41751C21.5004 8.03484 21.6646 7.59846 21.7247 7.14215C21.7847 6.68584 21.7389 6.22184 21.5909 5.78605C21.4429 5.35026 21.1966 4.95436 20.8711 4.629L19.6811 3.44C19.4001 3.15862 19.0188 3.00035 18.6211 3H5.37811C4.98057 3.00008 4.59931 3.15798 4.31811 3.439L3.12911 4.629C2.80435 4.95474 2.55873 5.3507 2.41118 5.78637C2.26364 6.22204 2.21811 6.68577 2.27811 7.14182C2.33811 7.59786 2.50204 8.03403 2.75725 8.41671C3.01246 8.79939 3.35215 9.11835 3.75011 9.349M3.75011 21V9.349M6.75011 18H10.5001C10.699 18 10.8898 17.921 11.0304 17.7803C11.1711 17.6397 11.2501 17.4489 11.2501 17.25V13.5C11.2501 13.3011 11.1711 13.1103 11.0304 12.9697C10.8898 12.829 10.699 12.75 10.5001 12.75H6.75011C6.5512 12.75 6.36043 12.829 6.21978 12.9697C6.07913 13.1103 6.00011 13.3011 6.00011 13.5V17.25C6.00011 17.664 6.33611 18 6.75011 18Z" stroke="#5D5FEF" stroke-width="1.5" stroke-linecap="round" stroke-linejoin="round"/>
                </svg>

    