<svg width="471" height="53" viewBox="0 0 471 53" fill="none" xmlns="http://www.w3.org/2000/svg">
<path d="M0.860352 1.51692H8.78353V22.0451H17.2829V1.51692H25.2061V51.9371H17.2829V29.248H8.78353V51.9371H0.860352V1.51692Z" fill="#262641"/>
<path d="M37.2293 1.51692H47.9616L56.1729 51.9371H48.2497L46.8091 41.9251V42.0692H37.8055L36.3649 51.9371H29.018L37.2293 1.51692ZM45.8728 35.2264L42.3433 10.3044H42.1993L38.7419 35.2264H45.8728Z" fill="#262641"/>
<path d="M60.0169 1.51692H69.9568L77.6639 31.697H77.808V1.51692H84.8668V51.9371H76.7276L67.2197 15.1304H67.0757V51.9371H60.0169V1.51692Z" fill="#262641"/>
<path d="M101.992 52.6574C98.1507 52.6574 95.2215 51.577 93.2047 49.4161C91.1879 47.2072 90.1795 44.062 90.1795 39.9803V13.4737C90.1795 9.39208 91.1879 6.27082 93.2047 4.10996C95.2215 1.90107 98.1507 0.796631 101.992 0.796631C105.834 0.796631 108.763 1.90107 110.78 4.10996C112.797 6.27082 113.805 9.39208 113.805 13.4737V17.7954H106.314V12.9695C106.314 9.65618 104.945 7.99952 102.208 7.99952C99.4712 7.99952 98.1027 9.65618 98.1027 12.9695V40.5566C98.1027 43.8219 99.4712 45.4545 102.208 45.4545C104.945 45.4545 106.314 43.8219 106.314 40.5566V30.6886H102.352V23.4857H113.805V39.9803C113.805 44.062 112.797 47.2072 110.78 49.4161C108.763 51.577 105.834 52.6574 101.992 52.6574Z" fill="#262641"/>
<path d="M125.014 1.51692H135.747L143.958 51.9371H136.035L134.594 41.9251V42.0692H125.591L124.15 51.9371H116.803L125.014 1.51692ZM133.658 35.2264L130.129 10.3044H129.984L126.527 35.2264H133.658Z" fill="#262641"/>
<path d="M147.802 1.51692H159.543C163.624 1.51692 166.602 2.4773 168.474 4.39807C170.347 6.27082 171.283 9.17599 171.283 13.1136V16.2108C171.283 21.4449 169.555 24.7582 166.097 26.1508V26.2948C168.018 26.8711 169.363 28.0476 170.131 29.8243C170.947 31.601 171.355 33.9779 171.355 36.9551V45.8147C171.355 47.2552 171.403 48.4317 171.5 49.3441C171.596 50.2084 171.836 51.0728 172.22 51.9371H164.153C163.864 51.1208 163.672 50.3525 163.576 49.6322C163.48 48.9119 163.432 47.6154 163.432 45.7426V36.5229C163.432 34.218 163.048 32.6094 162.28 31.697C161.56 30.7846 160.287 30.3285 158.462 30.3285H155.725V51.9371H147.802V1.51692ZM158.606 23.1256C160.191 23.1256 161.367 22.7174 162.136 21.9011C162.952 21.0848 163.36 19.7162 163.36 17.7954V13.9059C163.36 12.0812 163.024 10.7606 162.352 9.9443C161.728 9.12797 160.719 8.71981 159.327 8.71981H155.725V23.1256H158.606Z" fill="#262641"/>
<path d="M199.841 52.6574C195.952 52.6574 192.974 51.553 190.91 49.3441C188.845 47.1352 187.812 44.0139 187.812 39.9803V13.4737C187.812 9.44009 188.845 6.31884 190.91 4.10996C192.974 1.90107 195.952 0.796631 199.841 0.796631C203.731 0.796631 206.708 1.90107 208.773 4.10996C210.838 6.31884 211.87 9.44009 211.87 13.4737V39.9803C211.87 44.0139 210.838 47.1352 208.773 49.3441C206.708 51.553 203.731 52.6574 199.841 52.6574ZM199.841 45.4545C202.578 45.4545 203.947 43.7979 203.947 40.4845V12.9695C203.947 9.65618 202.578 7.99952 199.841 7.99952C197.104 7.99952 195.736 9.65618 195.736 12.9695V40.4845C195.736 43.7979 197.104 45.4545 199.841 45.4545Z" fill="#262641"/>
<path d="M217.228 1.51692H227.168L234.875 31.697H235.019V1.51692H242.078V51.9371H233.939L224.431 15.1304H224.287V51.9371H217.228V1.51692Z" fill="#262641"/>
<path d="M247.967 1.51692H269.576V8.71981H255.89V22.0451H266.767V29.248H255.89V44.7342H269.576V51.9371H247.967V1.51692Z" fill="#262641"/>
<rect x="292.26" y="1.38804" width="177.631" height="49.4437" stroke="#262641" stroke-width="1.83125"/>
<path d="M313.644 21.7189V24.625H316.881C317.459 24.625 317.927 24.5177 318.285 24.3031C318.648 24.0825 318.83 23.695 318.83 23.1407C318.83 22.5267 318.592 22.1213 318.115 21.9246C317.704 21.7875 317.179 21.7189 316.541 21.7189H313.644ZM313.644 26.8067V30.3208H316.881C317.459 30.3208 317.909 30.2433 318.231 30.0883C318.815 29.8022 319.107 29.2538 319.107 28.4431C319.107 27.7575 318.824 27.2866 318.258 27.0303C317.942 26.8872 317.498 26.8127 316.926 26.8067H313.644ZM317.418 19.4299C319.033 19.4537 320.177 19.9217 320.851 20.8337C321.256 21.3941 321.459 22.0647 321.459 22.8456C321.459 23.6503 321.256 24.2971 320.851 24.7859C320.625 25.0601 320.291 25.3105 319.85 25.537C320.523 25.7814 321.03 26.1689 321.37 26.6994C321.715 27.23 321.888 27.8738 321.888 28.6308C321.888 29.4117 321.692 30.1122 321.298 30.7321C321.048 31.1434 320.735 31.4892 320.359 31.7693C319.936 32.0912 319.435 32.3118 318.857 32.431C318.285 32.5503 317.662 32.6099 316.988 32.6099H311.015V19.4299H317.418ZM327.808 27.6294H331.152L329.507 22.4432L327.808 27.6294ZM327.978 19.4299H331.089L335.757 32.6099H332.77L331.921 29.9005H327.066L326.153 32.6099H323.274L327.978 19.4299ZM340.192 21.7189V25.2598H343.313C343.932 25.2598 344.397 25.1883 344.707 25.0452C345.256 24.7949 345.53 24.3001 345.53 23.5609C345.53 22.7621 345.265 22.2256 344.734 21.9514C344.436 21.7964 343.989 21.7189 343.393 21.7189H340.192ZM343.965 19.4299C344.889 19.4478 345.599 19.561 346.093 19.7697C346.594 19.9783 347.017 20.2853 347.363 20.6907C347.649 21.0245 347.876 21.3941 348.043 21.7994C348.21 22.2048 348.293 22.6668 348.293 23.1854C348.293 23.8113 348.135 24.4283 347.819 25.0363C347.503 25.6384 346.982 26.0646 346.254 26.3149C346.862 26.5594 347.292 26.9081 347.542 27.3611C347.798 27.8082 347.926 28.4937 347.926 29.4177V30.3029C347.926 30.905 347.95 31.3133 347.998 31.5279C348.069 31.8677 348.236 32.1181 348.499 32.279V32.6099H345.467C345.384 32.3178 345.324 32.0823 345.289 31.9035C345.217 31.5339 345.178 31.1554 345.172 30.7679L345.154 29.5429C345.143 28.7024 344.988 28.142 344.69 27.8619C344.397 27.5817 343.846 27.4416 343.035 27.4416H340.192V32.6099H337.5V19.4299H343.965ZM355.026 28.9259V26.5921H358.692V22.9261H361.044V26.5921H364.71V28.9259H361.044V32.6099H358.692V28.9259H355.026ZM371.604 19.4299H374.313V24.8575L379.401 19.4299H382.96L377.559 24.8575L383.237 32.6099H379.696L375.628 26.8514L374.313 28.2016V32.6099H371.604V19.4299ZM387.314 32.6099H384.578V19.4299H387.314V32.6099ZM399.466 19.4299V21.7636H395.523V32.6099H392.751V21.7636H388.79V19.4299H399.466ZM400.512 26.1272C400.512 23.8262 401.129 22.0528 402.363 20.8069C403.436 19.722 404.801 19.1795 406.458 19.1795C408.676 19.1795 410.297 19.9068 411.323 21.3613C411.889 22.1779 412.193 22.9976 412.235 23.8202H409.481C409.302 23.1884 409.072 22.7115 408.792 22.3896C408.291 21.8173 407.549 21.5312 406.566 21.5312C405.564 21.5312 404.774 21.9365 404.196 22.7472C403.618 23.552 403.329 24.6935 403.329 26.1719C403.329 27.6502 403.633 28.759 404.241 29.4982C404.855 30.2314 405.633 30.598 406.575 30.598C407.54 30.598 408.277 30.2821 408.783 29.6502C409.063 29.3104 409.296 28.8007 409.481 28.1212H412.208C411.969 29.5578 411.358 30.7262 410.375 31.6263C409.397 32.5264 408.142 32.9765 406.61 32.9765C404.715 32.9765 403.224 32.3684 402.14 31.1524C401.055 29.9304 400.512 28.2553 400.512 26.1272ZM414.3 32.6099V19.4299H417.027V24.4551H422.178V19.4299H424.914V32.6099H422.178V26.7263H417.027V32.6099H414.3ZM437.298 21.7636H430.324V24.5624H436.726V26.8514H430.324V30.2403H437.62V32.6099H427.632V19.4299H437.298V21.7636ZM439.721 19.4299H442.609L447.858 28.6308V19.4299H450.424V32.6099H447.67L442.288 23.248V32.6099H439.721V19.4299Z" fill="#262641"/>
</svg>
